<svg xmlns="http://www.w3.org/2000/svg" version="1.1" xmlns:xlink="http://www.w3.org/1999/xlink"
     xmlns:svgjs="http://svgjs.dev/svgjs" viewBox="0 0 800 800" opacity="0.07">
    <defs>
        <linearGradient x1="50%" y1="0%" x2="50%" y2="100%" id="ffflurry-grad" gradientTransform="rotate(270)">
            <stop stop-color="hsl(238, 82%, 13%)" stop-opacity="1" offset="0%"></stop>
            <stop stop-color="#660066" stop-opacity="1" offset="45%"></stop>
            <stop stop-color="#bade1c" stop-opacity="1" offset="100%"></stop>
        </linearGradient>
    </defs>
    <g fill="url(#ffflurry-grad)">
        <rect width="595" height="3" x="252.5" y="316.5" rx="1.5" transform="rotate(333, 550, 318)"
              opacity="0.24"></rect>
        <rect width="122" height="3" x="11" y="101.5" rx="1.5" transform="rotate(333, 72, 103)" opacity="0.37"></rect>
        <rect width="72" height="3" x="441" y="594.5" rx="1.5" transform="rotate(333, 477, 596)" opacity="0.40"></rect>
        <rect width="593" height="3" x="355.5" y="297.5" rx="1.5" transform="rotate(333, 652, 299)"
              opacity="0.89"></rect>
        <rect width="731" height="3" x="-215.5" y="651.5" rx="1.5" transform="rotate(333, 150, 653)"
              opacity="0.47"></rect>
        <rect width="60" height="3" x="73" y="301.5" rx="1.5" transform="rotate(333, 103, 303)" opacity="0.12"></rect>
        <rect width="389" height="3" x="52.5" y="86.5" rx="1.5" transform="rotate(333, 247, 88)" opacity="0.43"></rect>
        <rect width="239" height="3" x="629.5" y="430.5" rx="1.5" transform="rotate(333, 749, 432)"
              opacity="0.82"></rect>
        <rect width="530" height="3" x="-231" y="749.5" rx="1.5" transform="rotate(333, 34, 751)" opacity="1.00"></rect>
        <rect width="732" height="3" x="-179" y="750.5" rx="1.5" transform="rotate(333, 187, 752)"
              opacity="0.45"></rect>
        <rect width="298" height="3" x="-35" y="14.5" rx="1.5" transform="rotate(333, 114, 16)" opacity="0.37"></rect>
        <rect width="487" height="3" x="293.5" y="199.5" rx="1.5" transform="rotate(333, 537, 201)"
              opacity="0.73"></rect>
        <rect width="185" height="3" x="130.5" y="673.5" rx="1.5" transform="rotate(333, 223, 675)"
              opacity="0.35"></rect>
        <rect width="176" height="3" x="601" y="37.5" rx="1.5" transform="rotate(333, 689, 39)" opacity="0.09"></rect>
        <rect width="340" height="3" x="-142" y="436.5" rx="1.5" transform="rotate(333, 28, 438)" opacity="0.21"></rect>
        <rect width="649" height="3" x="-202.5" y="209.5" rx="1.5" transform="rotate(333, 122, 211)"
              opacity="0.10"></rect>
        <rect width="419" height="3" x="65.5" y="300.5" rx="1.5" transform="rotate(333, 275, 302)"
              opacity="0.31"></rect>
        <rect width="145" height="3" x="-1.5" y="372.5" rx="1.5" transform="rotate(333, 71, 374)" opacity="0.86"></rect>
        <rect width="559" height="3" x="-129.5" y="470.5" rx="1.5" transform="rotate(333, 150, 472)"
              opacity="0.84"></rect>
        <rect width="641" height="3" x="318.5" y="681.5" rx="1.5" transform="rotate(333, 639, 683)"
              opacity="0.21"></rect>
        <rect width="261" height="3" x="575.5" y="598.5" rx="1.5" transform="rotate(333, 706, 600)"
              opacity="0.87"></rect>
        <rect width="51" height="3" x="35.5" y="39.5" rx="1.5" transform="rotate(333, 61, 41)" opacity="0.76"></rect>
        <rect width="532" height="3" x="301" y="261.5" rx="1.5" transform="rotate(333, 567, 263)" opacity="0.23"></rect>
        <rect width="430" height="3" x="-114" y="532.5" rx="1.5" transform="rotate(333, 101, 534)"
              opacity="0.37"></rect>
        <rect width="496" height="3" x="481" y="533.5" rx="1.5" transform="rotate(333, 729, 535)" opacity="0.15"></rect>
        <rect width="447" height="3" x="425.5" y="761.5" rx="1.5" transform="rotate(333, 649, 763)"
              opacity="0.98"></rect>
        <rect width="370" height="3" x="123" y="117.5" rx="1.5" transform="rotate(333, 308, 119)" opacity="0.07"></rect>
        <rect width="270" height="3" x="572" y="222.5" rx="1.5" transform="rotate(333, 707, 224)" opacity="0.88"></rect>
        <rect width="293" height="3" x="260.5" y="634.5" rx="1.5" transform="rotate(333, 407, 636)"
              opacity="0.21"></rect>
        <rect width="44" height="3" x="44" y="460.5" rx="1.5" transform="rotate(333, 66, 462)" opacity="0.19"></rect>
        <rect width="589" height="3" x="256.5" y="560.5" rx="1.5" transform="rotate(333, 551, 562)"
              opacity="0.47"></rect>
        <rect width="306" height="3" x="64" y="325.5" rx="1.5" transform="rotate(333, 217, 327)" opacity="1.00"></rect>
        <rect width="285" height="3" x="456.5" y="147.5" rx="1.5" transform="rotate(333, 599, 149)"
              opacity="0.42"></rect>
        <rect width="556" height="3" x="202" y="166.5" rx="1.5" transform="rotate(333, 480, 168)" opacity="0.89"></rect>
        <rect width="279" height="3" x="461.5" y="203.5" rx="1.5" transform="rotate(333, 601, 205)"
              opacity="0.51"></rect>
        <rect width="177" height="3" x="425.5" y="27.5" rx="1.5" transform="rotate(333, 514, 29)" opacity="0.95"></rect>
        <rect width="279" height="3" x="376.5" y="775.5" rx="1.5" transform="rotate(333, 516, 777)"
              opacity="0.75"></rect>
        <rect width="817" height="3" x="228.5" y="598.5" rx="1.5" transform="rotate(333, 637, 600)"
              opacity="0.31"></rect>
        <rect width="88" height="3" x="431" y="357.5" rx="1.5" transform="rotate(333, 475, 359)" opacity="0.34"></rect>
        <rect width="390" height="3" x="447" y="234.5" rx="1.5" transform="rotate(333, 642, 236)" opacity="0.73"></rect>
        <rect width="225" height="3" x="466.5" y="98.5" rx="1.5" transform="rotate(333, 579, 100)"
              opacity="0.82"></rect>
        <rect width="315" height="3" x="602.5" y="333.5" rx="1.5" transform="rotate(333, 760, 335)"
              opacity="0.39"></rect>
        <rect width="726" height="3" x="320" y="154.5" rx="1.5" transform="rotate(333, 683, 156)" opacity="0.82"></rect>
        <rect width="111" height="3" x="271.5" y="260.5" rx="1.5" transform="rotate(333, 327, 262)"
              opacity="0.59"></rect>
        <rect width="73" height="3" x="246.5" y="531.5" rx="1.5" transform="rotate(333, 283, 533)"
              opacity="0.33"></rect>
        <rect width="434" height="3" x="559" y="505.5" rx="1.5" transform="rotate(333, 776, 507)" opacity="0.52"></rect>
        <rect width="481" height="3" x="-216.5" y="108.5" rx="1.5" transform="rotate(333, 24, 110)"
              opacity="0.70"></rect>
        <rect width="255" height="3" x="643.5" y="181.5" rx="1.5" transform="rotate(333, 771, 183)"
              opacity="0.19"></rect>
        <rect width="37" height="3" x="745.5" y="627.5" rx="1.5" transform="rotate(333, 764, 629)"
              opacity="0.22"></rect>
        <rect width="175" height="3" x="661.5" y="266.5" rx="1.5" transform="rotate(333, 749, 268)"
              opacity="0.88"></rect>
        <rect width="477" height="3" x="165.5" y="303.5" rx="1.5" transform="rotate(333, 404, 305)"
              opacity="0.70"></rect>
        <rect width="93" height="3" x="279.5" y="769.5" rx="1.5" transform="rotate(333, 326, 771)"
              opacity="0.18"></rect>
        <rect width="58" height="3" x="439" y="668.5" rx="1.5" transform="rotate(333, 468, 670)" opacity="0.56"></rect>
        <rect width="415" height="3" x="148.5" y="359.5" rx="1.5" transform="rotate(333, 356, 361)"
              opacity="0.67"></rect>
        <rect width="354" height="3" x="216" y="221.5" rx="1.5" transform="rotate(333, 393, 223)" opacity="0.77"></rect>
        <rect width="383" height="3" x="-62.5" y="389.5" rx="1.5" transform="rotate(333, 129, 391)"
              opacity="0.70"></rect>
        <rect width="401" height="3" x="-170.5" y="508.5" rx="1.5" transform="rotate(333, 30, 510)"
              opacity="0.40"></rect>
        <rect width="308" height="3" x="294" y="526.5" rx="1.5" transform="rotate(333, 448, 528)" opacity="0.71"></rect>
        <rect width="89" height="3" x="193.5" y="152.5" rx="1.5" transform="rotate(333, 238, 154)"
              opacity="0.51"></rect>
        <rect width="309" height="3" x="-48.5" y="131.5" rx="1.5" transform="rotate(333, 106, 133)"
              opacity="0.33"></rect>
        <rect width="607" height="3" x="320.5" y="365.5" rx="1.5" transform="rotate(333, 624, 367)"
              opacity="0.70"></rect>
        <rect width="299" height="3" x="491.5" y="54.5" rx="1.5" transform="rotate(333, 641, 56)" opacity="0.35"></rect>
        <rect width="291" height="3" x="162.5" y="178.5" rx="1.5" transform="rotate(333, 308, 180)"
              opacity="0.75"></rect>
        <rect width="230" height="3" x="280" y="470.5" rx="1.5" transform="rotate(333, 395, 472)" opacity="0.47"></rect>
        <rect width="780" height="3" x="120" y="463.5" rx="1.5" transform="rotate(333, 510, 465)" opacity="0.45"></rect>
        <rect width="455" height="3" x="-199.5" y="304.5" rx="1.5" transform="rotate(333, 28, 306)"
              opacity="0.88"></rect>
        <rect width="587" height="3" x="265.5" y="732.5" rx="1.5" transform="rotate(333, 559, 734)"
              opacity="0.79"></rect>
        <rect width="117" height="3" x="-3.5" y="243.5" rx="1.5" transform="rotate(333, 55, 245)" opacity="0.94"></rect>
        <rect width="449" height="3" x="21.5" y="392.5" rx="1.5" transform="rotate(333, 246, 394)"
              opacity="0.95"></rect>
        <rect width="438" height="3" x="359" y="31.5" rx="1.5" transform="rotate(333, 578, 33)" opacity="0.74"></rect>
        <rect width="469" height="3" x="191.5" y="415.5" rx="1.5" transform="rotate(333, 426, 417)"
              opacity="0.42"></rect>
        <rect width="472" height="3" x="-46" y="192.5" rx="1.5" transform="rotate(333, 190, 194)" opacity="0.98"></rect>
        <rect width="348" height="3" x="307" y="66.5" rx="1.5" transform="rotate(333, 481, 68)" opacity="0.37"></rect>
        <rect width="211" height="3" x="112.5" y="457.5" rx="1.5" transform="rotate(333, 218, 459)"
              opacity="0.68"></rect>
        <rect width="662" height="3" x="360" y="383.5" rx="1.5" transform="rotate(333, 691, 385)" opacity="0.89"></rect>
        <rect width="65" height="3" x="310.5" y="603.5" rx="1.5" transform="rotate(333, 343, 605)"
              opacity="0.97"></rect>
        <rect width="280" height="3" x="241" y="148.5" rx="1.5" transform="rotate(333, 381, 150)" opacity="0.22"></rect>
        <rect width="34" height="3" x="93" y="64.5" rx="1.5" transform="rotate(333, 110, 66)" opacity="0.69"></rect>
        <rect width="344" height="3" x="-68" y="452.5" rx="1.5" transform="rotate(333, 104, 454)" opacity="0.89"></rect>
        <rect width="566" height="3" x="19" y="644.5" rx="1.5" transform="rotate(333, 302, 646)" opacity="0.20"></rect>
        <rect width="240" height="3" x="270" y="588.5" rx="1.5" transform="rotate(333, 390, 590)" opacity="0.44"></rect>
        <rect width="436" height="3" x="-63" y="138.5" rx="1.5" transform="rotate(333, 155, 140)" opacity="0.43"></rect>
        <rect width="96" height="3" x="614" y="493.5" rx="1.5" transform="rotate(333, 662, 495)" opacity="0.41"></rect>
        <rect width="251" height="3" x="425.5" y="648.5" rx="1.5" transform="rotate(333, 551, 650)"
              opacity="0.33"></rect>
        <rect width="596" height="3" x="180" y="263.5" rx="1.5" transform="rotate(333, 478, 265)" opacity="0.61"></rect>
        <rect width="510" height="3" x="83" y="23.5" rx="1.5" transform="rotate(333, 338, 25)" opacity="0.63"></rect>
        <rect width="247" height="3" x="291.5" y="769.5" rx="1.5" transform="rotate(333, 415, 771)"
              opacity="0.57"></rect>
        <rect width="71" height="3" x="746.5" y="38.5" rx="1.5" transform="rotate(333, 782, 40)" opacity="0.83"></rect>
        <rect width="589" height="3" x="-256.5" y="178.5" rx="1.5" transform="rotate(333, 38, 180)"
              opacity="0.76"></rect>
        <rect width="291" height="3" x="596.5" y="108.5" rx="1.5" transform="rotate(333, 742, 110)"
              opacity="0.51"></rect>
        <rect width="683" height="3" x="-110.5" y="593.5" rx="1.5" transform="rotate(333, 231, 595)"
              opacity="0.52"></rect>
        <rect width="445" height="3" x="338.5" y="393.5" rx="1.5" transform="rotate(333, 561, 395)"
              opacity="0.35"></rect>
        <rect width="286" height="3" x="50" y="376.5" rx="1.5" transform="rotate(333, 193, 378)" opacity="0.96"></rect>
        <rect width="88" height="3" x="709" y="768.5" rx="1.5" transform="rotate(333, 753, 770)" opacity="0.50"></rect>
        <rect width="353" height="3" x="76.5" y="227.5" rx="1.5" transform="rotate(333, 253, 229)"
              opacity="0.37"></rect>
        <rect width="340" height="3" x="-150" y="380.5" rx="1.5" transform="rotate(333, 20, 382)" opacity="0.49"></rect>
        <rect width="133" height="3" x="127.5" y="526.5" rx="1.5" transform="rotate(333, 194, 528)"
              opacity="0.24"></rect>
        <rect width="221" height="3" x="204.5" y="428.5" rx="1.5" transform="rotate(333, 315, 430)"
              opacity="0.53"></rect>
        <rect width="126" height="3" x="89" y="331.5" rx="1.5" transform="rotate(333, 152, 333)" opacity="0.35"></rect>
        <rect width="305" height="3" x="-114.5" y="581.5" rx="1.5" transform="rotate(333, 38, 583)"
              opacity="0.08"></rect>
        <rect width="82" height="3" x="251" y="367.5" rx="1.5" transform="rotate(333, 292, 369)" opacity="0.53"></rect>
        <rect width="407" height="3" x="131.5" y="486.5" rx="1.5" transform="rotate(333, 335, 488)"
              opacity="0.30"></rect>
        <rect width="438" height="3" x="-27" y="97.5" rx="1.5" transform="rotate(333, 192, 99)" opacity="0.77"></rect>
        <rect width="530" height="3" x="-42" y="26.5" rx="1.5" transform="rotate(333, 223, 28)" opacity="0.31"></rect>
        <rect width="419" height="3" x="385.5" y="480.5" rx="1.5" transform="rotate(333, 595, 482)"
              opacity="0.95"></rect>
        <rect width="608" height="3" x="160" y="727.5" rx="1.5" transform="rotate(333, 464, 729)" opacity="0.23"></rect>
        <rect width="281" height="3" x="140.5" y="24.5" rx="1.5" transform="rotate(333, 281, 26)" opacity="0.29"></rect>
        <rect width="31" height="3" x="352.5" y="539.5" rx="1.5" transform="rotate(333, 368, 541)"
              opacity="0.45"></rect>
        <rect width="158" height="3" x="662" y="704.5" rx="1.5" transform="rotate(333, 741, 706)" opacity="0.78"></rect>
        <rect width="207" height="3" x="638.5" y="40.5" rx="1.5" transform="rotate(333, 742, 42)" opacity="1.00"></rect>
        <rect width="213" height="3" x="76.5" y="265.5" rx="1.5" transform="rotate(333, 183, 267)"
              opacity="0.87"></rect>
        <rect width="389" height="3" x="-112.5" y="649.5" rx="1.5" transform="rotate(333, 82, 651)"
              opacity="0.72"></rect>
        <rect width="126" height="3" x="238" y="575.5" rx="1.5" transform="rotate(333, 301, 577)" opacity="0.89"></rect>
        <rect width="61" height="3" x="132.5" y="44.5" rx="1.5" transform="rotate(333, 163, 46)" opacity="0.21"></rect>
        <rect width="294" height="3" x="-4" y="581.5" rx="1.5" transform="rotate(333, 143, 583)" opacity="0.16"></rect>
        <rect width="40" height="3" x="300" y="72.5" rx="1.5" transform="rotate(333, 320, 74)" opacity="0.22"></rect>
        <rect width="644" height="3" x="-218" y="751.5" rx="1.5" transform="rotate(333, 104, 753)"
              opacity="0.75"></rect>
        <rect width="238" height="3" x="309" y="103.5" rx="1.5" transform="rotate(333, 428, 105)" opacity="0.44"></rect>
        <rect width="232" height="3" x="-95" y="31.5" rx="1.5" transform="rotate(333, 21, 33)" opacity="0.61"></rect>
        <rect width="72" height="3" x="242" y="726.5" rx="1.5" transform="rotate(333, 278, 728)" opacity="0.49"></rect>
        <rect width="212" height="3" x="-80" y="666.5" rx="1.5" transform="rotate(333, 26, 668)" opacity="0.93"></rect>
        <rect width="188" height="3" x="280" y="697.5" rx="1.5" transform="rotate(333, 374, 699)" opacity="0.75"></rect>
        <rect width="504" height="3" x="11" y="481.5" rx="1.5" transform="rotate(333, 263, 483)" opacity="0.61"></rect>
        <rect width="139" height="3" x="328.5" y="38.5" rx="1.5" transform="rotate(333, 398, 40)" opacity="0.16"></rect>
        <rect width="202" height="3" x="81" y="421.5" rx="1.5" transform="rotate(333, 182, 423)" opacity="0.16"></rect>
    </g>
</svg>