<svg version="1.2" xmlns="http://www.w3.org/2000/svg" viewBox="0 0 1508 488" width="1508" height="488"><style>.a{fill:#3e413d}.b{fill:#7eb400}</style><path class="a" d="m742.7 314.3q0 6.5-4.4 12.2-4.1 5.5-12.4 5.5h-80.6q-6.8 0-12-5.2-4.9-5.4-4.9-12.5v-126.4q0-7.1 4.9-12.3 5.2-5.4 12-5.4h78q8.3 0 12.4 5.4 4.4 5.5 4.4 12.3 0 6.6-4.4 12.3-4.1 5.5-12.4 5.5h-61.2v26.7h22.8q8.3 0 12.5 5.5 4.4 5.4 4.4 12.2 0 6.6-4.4 12.3-4.2 5.5-12.5 5.5h-22.8v28.6h63.8q8.3 0 12.4 5.8 4.4 5.4 4.4 12zm104.2-80.5v-17q0-6-2.5-8.4-2.4-2.5-7.8-2.5h-38.9v38.8h38.9q5.4 0 7.8-2.5 2.5-2.4 2.5-8.4zm33.7-17v17q0 10.6-3.3 19.3-3.4 8.5-9.4 14.5-5.9 6-14 9.3-8 3.3-17.3 3.3h-38.9v35.4q0 8.8-5.2 13.4-5.2 4.4-11.7 4.4-6.2 0-11.6-4.4-5.2-4.6-5.2-13.4v-127.4q0-7.1 4.9-12.3 5.2-5.4 11.9-5.4h55.8q9.3 0 17.3 3.2 8.1 3.3 14 9.3 6 6 9.4 14.7 3.3 8.5 3.3 19.1zm91.6 42.9l-9.4-55.1q0-0.3-0.2-0.9-0.8-0.8-1.8-0.8-1.3 0-1.6 0.6 0 0.2-0.5 0.8l-12.2 55.4zm45.1 56.7q0 8-5.4 12.6-5.5 4.6-12 4.6-5.4 0-10.1-3.5-4.6-3.6-5.9-10.9l-4.7-24h-39.9q-1.3 6.2-2.6 12.2-1.3 6-2.6 12.3-1.6 7.1-6.2 10.4-4.7 3.3-9.9 3.3-6.5 0-11.9-4.4-5.5-4.6-5.5-12.6 0-1 0-2.1 0.3-1.4 0.6-2.8l26.1-117.3q2.9-12.8 11.7-18.8 8.8-6.3 21.5-6.3 8.6 0 14.5 2.4 6.3 2.5 10.2 6.9 4.1 4.3 6.4 10.6 2.4 6.3 3.9 13.7l21.3 109.7q0.5 2.7 0.5 4zm106.8-30.8v-68.8q0-6-2.6-8.4-2.3-2.5-7.8-2.5h-39.4v90.6h39.4q5.5 0 7.8-2.4 2.6-2.5 2.6-8.5zm33.7-68.8v68.8q0 10.7-3.4 19.4-3.3 8.4-9.3 14.4-6 6.1-14 9.3-8 3.3-17.4 3.3h-56.2q-6.8 0-11.9-5.2-5-5.4-5-12.5v-126.1q0-7.1 5-12.3 5.1-5.4 11.9-5.4h56.2q9.4 0 17.4 3.2 8 3.3 14 9.3 6 6 9.3 14.7 3.4 8.5 3.4 19.1zm113 7.1v-7.1q0-6-2.5-8.4-2.4-2.5-7.8-2.5h-38.9v29h38.9q5.4 0 7.8-2.5 2.5-2.5 2.5-8.5zm33.7-7.1v7.1q0 13.1-5.1 23-5 9.8-13.5 15.8l16.3 46.9q0.5 1.9 0.8 3.6 0.5 1.3 0.5 3 0 7.9-5.4 12.5-5.5 4.7-12.2 4.7-4.7 0-9.1-2.8-4.1-2.7-6.2-9l-17.9-51.3h-31.1v45.3q0 8.8-5.2 13.4-5.2 4.4-11.7 4.4-6.2 0-11.6-4.4-5.2-4.6-5.2-13.4v-127.4q0-7.1 4.9-12.3 5.2-5.4 11.9-5.4h55.8q9.3 0 17.3 3.2 8.1 3.3 14 9.3 6 6 9.4 14.7 3.3 8.5 3.3 19.1zm138.2-30q0 1.1-0.2 2.2 0 0.8-0.3 2.2-2.1 9.8-4.9 23.5-2.6 13.6-5.7 28.9-3.1 15-6.5 30.3-3.1 15.3-6.5 28.6-3.6 14.5-12.2 22.4-8.3 7.9-23.6 7.9-10.1 0-16.8-3.5-6.8-3.6-11.2-9.3-4.1-6-6.7-13.7-2.3-7.9-3.9-16.6l-18.4-99.1q-0.3-1.3-0.3-3.8 0-8.2 5.2-12.5 5.5-4.7 12-4.7 5.4 0 10.1 3.6 4.9 3.5 6.2 10.9 2.6 13.9 5.9 32.5 3.4 18.5 6.8 35.7 3.6 19.9 7.8 40.7 0 1.1 0.5 2.2 1 2.1 3.1 2.1 1.8 0 2.8-2.1 0.6-1.1 0.6-2.2 5.9-27.3 10.6-50.2 2.1-9.9 3.9-19.4 2.1-9.6 3.9-17.7 1.8-8.2 2.8-14 1.3-6 1.8-8.2 1.6-7 6-10.3 4.7-3.6 9.9-3.6 6.4 0 11.9 4.7 5.4 4.6 5.4 12.5z"/><path class="b" d="m536 341l-4-104 6-66-33-27-10 87 1 103z"/><path class="b" d="m440 101l-19 51 3 80-40-6 3-81 24-56z"/><path class="b" d="m358 73l-33 31-5 50-38 1 10-59 37-31z"/><path class="b" d="m289 67l1 13-43 12-17 23-35 3 37-39 40-12z"/><path class="b" d="m164 95l21 16-43 6-12-15z"/><path class="b" d="m246 121l10 21-99 20-69 38-25-13 86-46z"/><path class="b" d="m345 175l2 30-113-1-104 36-28-21 129-44z"/><path class="b" d="m452 267l6 34-123-14-118 21-35-28 153-27z"/><path class="b" d="m573 422l-128-20-129 10-35-38 164-10 99 16z"/></svg>